<svg width="31" height="37" viewBox="0 0 31 37" fill="none" xmlns="http://www.w3.org/2000/svg">
<path d="M22.8571 20.8571C24.941 20.8571 26.9395 21.6849 28.413 23.1584C29.8865 24.6319 30.7143 26.6304 30.7143 28.7143C30.7143 30.7981 29.8865 32.7966 28.413 34.2701C26.9395 35.7436 24.941 36.5714 22.8571 36.5714C20.7733 36.5714 18.7748 35.7436 17.3013 34.2701C15.8278 32.7966 15 30.7981 15 28.7143C15 26.6304 15.8278 24.6319 17.3013 23.1584C18.7748 21.6849 20.7733 20.8571 22.8571 20.8571ZM15 0.85714C16.4661 0.857138 17.876 1.42062 18.9383 2.43103C20.0006 3.44144 20.6338 4.82148 20.7071 6.28571L20.7143 6.57143H27.8571C28.2213 6.57183 28.5715 6.71125 28.8362 6.96121C29.101 7.21116 29.2603 7.55279 29.2817 7.91628C29.303 8.27976 29.1847 8.63768 28.951 8.9169C28.7173 9.19612 28.3858 9.37556 28.0243 9.41857L27.8571 9.42857H26.6443L25.7957 19.9029C23.8262 19.245 21.6931 19.2663 19.7371 19.9633C17.7811 20.6602 16.1152 21.9927 15.0055 23.7477C13.8958 25.5027 13.4064 27.5791 13.6154 29.645C13.8244 31.7109 14.7198 33.6471 16.1586 35.1443L10.38 35.1429C9.03406 35.1429 7.7374 34.6364 6.74795 33.724C5.75849 32.8115 5.14875 31.5601 5.03999 30.2186L3.35428 9.42857H2.14285C1.79295 9.42852 1.45523 9.30006 1.19375 9.06755C0.932269 8.83503 0.765218 8.51464 0.724279 8.16714L0.714279 8C0.714325 7.65009 0.842788 7.31237 1.0753 7.05089C1.30781 6.78942 1.62821 6.62236 1.97571 6.58143L2.14285 6.57143H9.28571C9.28571 5.0559 9.88775 3.60245 10.9594 2.53082C12.031 1.45918 13.4845 0.85714 15 0.85714V0.85714ZM20.3286 25.1771L20.2314 25.0943C20.112 25.0116 19.9702 24.9674 19.825 24.9674C19.6798 24.9674 19.538 25.0116 19.4186 25.0943L19.3186 25.1771L19.2371 25.2771C19.1548 25.3964 19.1107 25.5379 19.1107 25.6829C19.1107 25.8278 19.1548 25.9693 19.2371 26.0886L19.32 26.1886L21.8486 28.7157L19.3228 31.2386L19.24 31.3386C19.1577 31.4579 19.1136 31.5994 19.1136 31.7443C19.1136 31.8892 19.1577 32.0307 19.24 32.15L19.3228 32.25L19.4229 32.3314C19.5421 32.4137 19.6836 32.4578 19.8286 32.4578C19.9735 32.4578 20.115 32.4137 20.2343 32.3314L20.3343 32.25L22.8571 29.7257L25.3857 32.2529L25.4843 32.3357C25.6036 32.418 25.7451 32.4621 25.89 32.4621C26.0349 32.4621 26.1764 32.418 26.2957 32.3357L26.3957 32.2529L26.4771 32.1529C26.5595 32.0336 26.6035 31.8921 26.6035 31.7471C26.6035 31.6022 26.5595 31.4607 26.4771 31.3414L26.3957 31.2414L23.8671 28.7157L26.3986 26.1871L26.4814 26.0886C26.5641 25.9691 26.6083 25.8274 26.6083 25.6821C26.6083 25.5369 26.5641 25.3951 26.4814 25.2757L26.3986 25.1771L26.3 25.0943C26.1806 25.0116 26.0388 24.9674 25.8936 24.9674C25.7483 24.9674 25.6066 25.0116 25.4871 25.0943L25.3886 25.1771L22.8571 27.7057L20.3286 25.1771L20.2314 25.0943L20.33 25.1771H20.3286ZM15 3.71428C14.2792 3.71405 13.5849 3.98629 13.0564 4.47642C12.5278 4.96655 12.2041 5.63835 12.15 6.35714L12.1429 6.57143H17.8571L17.85 6.35714C17.7959 5.63835 17.4722 4.96655 16.9436 4.47642C16.4151 3.98629 15.7208 3.71405 15 3.71428V3.71428Z" fill="#FF0000"/>
</svg>
